<mxfile host="app.diagrams.net" modified="2023-10-10T01:02:18.652Z" agent="Mozilla/5.0 (Macintosh; Intel Mac OS X 10_15_7) AppleWebKit/537.36 (KHTML, like Gecko) Chrome/117.0.0.0 Safari/537.36" etag="VbypNWw78A0lmssLXNCe" version="21.8.2" type="github">
  <diagram name="第 1 页" id="k1tiBxgFnthNxzB3Xy5j">
    <mxGraphModel dx="989" dy="913" grid="1" gridSize="10" guides="1" tooltips="1" connect="1" arrows="1" fold="1" page="1" pageScale="1" pageWidth="1169" pageHeight="827" math="0" shadow="0">
      <root>
        <mxCell id="0" />
        <mxCell id="1" parent="0" />
        <mxCell id="2Yq-ojM0MbA6nod-Vfu8-14" style="edgeStyle=orthogonalEdgeStyle;rounded=0;orthogonalLoop=1;jettySize=auto;html=1;exitX=0;exitY=0.5;exitDx=0;exitDy=0;entryX=1;entryY=0.5;entryDx=0;entryDy=0;endArrow=none;endFill=0;" edge="1" parent="1" source="2Yq-ojM0MbA6nod-Vfu8-1" target="2Yq-ojM0MbA6nod-Vfu8-3">
          <mxGeometry relative="1" as="geometry" />
        </mxCell>
        <mxCell id="2Yq-ojM0MbA6nod-Vfu8-20" style="edgeStyle=orthogonalEdgeStyle;rounded=0;orthogonalLoop=1;jettySize=auto;html=1;exitX=0.5;exitY=0;exitDx=0;exitDy=0;entryX=0.5;entryY=1;entryDx=0;entryDy=0;endArrow=none;endFill=0;" edge="1" parent="1" source="2Yq-ojM0MbA6nod-Vfu8-1" target="2Yq-ojM0MbA6nod-Vfu8-4">
          <mxGeometry relative="1" as="geometry" />
        </mxCell>
        <mxCell id="2Yq-ojM0MbA6nod-Vfu8-1" value="许长桥&lt;br&gt;江西师范大学本硕&lt;br&gt;软件所爱尔兰博&lt;br&gt;北京邮电大学教授" style="rounded=0;whiteSpace=wrap;html=1;" vertex="1" parent="1">
          <mxGeometry x="480" y="280" width="120" height="60" as="geometry" />
        </mxCell>
        <mxCell id="2Yq-ojM0MbA6nod-Vfu8-16" style="edgeStyle=orthogonalEdgeStyle;rounded=0;orthogonalLoop=1;jettySize=auto;html=1;exitX=0.5;exitY=1;exitDx=0;exitDy=0;entryX=0.5;entryY=0;entryDx=0;entryDy=0;endArrow=none;endFill=0;" edge="1" parent="1" source="2Yq-ojM0MbA6nod-Vfu8-2" target="2Yq-ojM0MbA6nod-Vfu8-7">
          <mxGeometry relative="1" as="geometry" />
        </mxCell>
        <mxCell id="2Yq-ojM0MbA6nod-Vfu8-2" value="段隆振&lt;br&gt;南昌大学教授" style="rounded=0;whiteSpace=wrap;html=1;" vertex="1" parent="1">
          <mxGeometry x="720" y="280" width="120" height="60" as="geometry" />
        </mxCell>
        <mxCell id="2Yq-ojM0MbA6nod-Vfu8-19" style="edgeStyle=orthogonalEdgeStyle;rounded=0;orthogonalLoop=1;jettySize=auto;html=1;exitX=0.5;exitY=0;exitDx=0;exitDy=0;entryX=0.5;entryY=1;entryDx=0;entryDy=0;endArrow=none;endFill=0;" edge="1" parent="1" source="2Yq-ojM0MbA6nod-Vfu8-3" target="2Yq-ojM0MbA6nod-Vfu8-4">
          <mxGeometry relative="1" as="geometry" />
        </mxCell>
        <mxCell id="2Yq-ojM0MbA6nod-Vfu8-3" value="衷璐洁&lt;br&gt;江西师范大学本硕&lt;br&gt;软件所博&lt;br&gt;首都师范大学教授" style="rounded=0;whiteSpace=wrap;html=1;" vertex="1" parent="1">
          <mxGeometry x="280" y="280" width="120" height="60" as="geometry" />
        </mxCell>
        <mxCell id="2Yq-ojM0MbA6nod-Vfu8-22" style="edgeStyle=orthogonalEdgeStyle;rounded=0;orthogonalLoop=1;jettySize=auto;html=1;exitX=0.75;exitY=1;exitDx=0;exitDy=0;entryX=0.5;entryY=0;entryDx=0;entryDy=0;endArrow=none;endFill=0;" edge="1" parent="1" source="2Yq-ojM0MbA6nod-Vfu8-4" target="2Yq-ojM0MbA6nod-Vfu8-2">
          <mxGeometry relative="1" as="geometry" />
        </mxCell>
        <mxCell id="2Yq-ojM0MbA6nod-Vfu8-4" value="衷尔英&lt;br&gt;江西师范大学老师" style="rounded=0;whiteSpace=wrap;html=1;" vertex="1" parent="1">
          <mxGeometry x="610" y="130" width="120" height="60" as="geometry" />
        </mxCell>
        <mxCell id="2Yq-ojM0MbA6nod-Vfu8-5" value="衷尔宣&lt;br&gt;马埠村村民" style="rounded=0;whiteSpace=wrap;html=1;" vertex="1" parent="1">
          <mxGeometry x="280" y="130" width="120" height="60" as="geometry" />
        </mxCell>
        <mxCell id="2Yq-ojM0MbA6nod-Vfu8-6" value="衷卫声&lt;br&gt;南昌大学教授" style="rounded=0;whiteSpace=wrap;html=1;" vertex="1" parent="1">
          <mxGeometry x="100" y="265" width="120" height="60" as="geometry" />
        </mxCell>
        <mxCell id="2Yq-ojM0MbA6nod-Vfu8-7" value="夏侯振宇&lt;br&gt;江西省网络安全研究院" style="rounded=0;whiteSpace=wrap;html=1;" vertex="1" parent="1">
          <mxGeometry x="720" y="430" width="120" height="60" as="geometry" />
        </mxCell>
        <mxCell id="2Yq-ojM0MbA6nod-Vfu8-8" value="衷尔钧&lt;br&gt;1957年生&lt;br&gt;江西省安义县科学技术委员会副主任" style="rounded=0;whiteSpace=wrap;html=1;" vertex="1" parent="1">
          <mxGeometry x="780" y="130" width="120" height="60" as="geometry" />
        </mxCell>
        <mxCell id="2Yq-ojM0MbA6nod-Vfu8-9" value="衷尔钜&lt;br&gt;1928年生&lt;br&gt;中国社会科学院哲学研究所" style="rounded=0;whiteSpace=wrap;html=1;" vertex="1" parent="1">
          <mxGeometry x="440" y="130" width="120" height="60" as="geometry" />
        </mxCell>
        <mxCell id="2Yq-ojM0MbA6nod-Vfu8-24" style="edgeStyle=orthogonalEdgeStyle;rounded=0;orthogonalLoop=1;jettySize=auto;html=1;exitX=0.5;exitY=1;exitDx=0;exitDy=0;entryX=0.5;entryY=0;entryDx=0;entryDy=0;endArrow=none;endFill=0;" edge="1" parent="1" source="2Yq-ojM0MbA6nod-Vfu8-12" target="2Yq-ojM0MbA6nod-Vfu8-4">
          <mxGeometry relative="1" as="geometry" />
        </mxCell>
        <mxCell id="2Yq-ojM0MbA6nod-Vfu8-12" value="衷尔豪&lt;br&gt;证券行业&lt;br&gt;有公司" style="rounded=0;whiteSpace=wrap;html=1;" vertex="1" parent="1">
          <mxGeometry x="630" y="10" width="120" height="60" as="geometry" />
        </mxCell>
        <mxCell id="2Yq-ojM0MbA6nod-Vfu8-15" value="夫妻" style="text;html=1;align=center;verticalAlign=middle;resizable=0;points=[];autosize=1;strokeColor=none;fillColor=none;" vertex="1" parent="1">
          <mxGeometry x="410" y="280" width="50" height="30" as="geometry" />
        </mxCell>
        <mxCell id="2Yq-ojM0MbA6nod-Vfu8-17" value="师生" style="text;html=1;align=center;verticalAlign=middle;resizable=0;points=[];autosize=1;strokeColor=none;fillColor=none;" vertex="1" parent="1">
          <mxGeometry x="780" y="368" width="50" height="30" as="geometry" />
        </mxCell>
        <mxCell id="2Yq-ojM0MbA6nod-Vfu8-28" style="edgeStyle=orthogonalEdgeStyle;rounded=0;orthogonalLoop=1;jettySize=auto;html=1;exitX=1;exitY=0.5;exitDx=0;exitDy=0;entryX=0;entryY=0.5;entryDx=0;entryDy=0;endArrow=none;endFill=0;" edge="1" parent="1" source="2Yq-ojM0MbA6nod-Vfu8-18" target="2Yq-ojM0MbA6nod-Vfu8-27">
          <mxGeometry relative="1" as="geometry" />
        </mxCell>
        <mxCell id="2Yq-ojM0MbA6nod-Vfu8-18" value="衷仁保&lt;br&gt;1937生&lt;br&gt;南昌大学退休教授&lt;br&gt;计科学院院长&lt;br&gt;微博：不老松衷" style="whiteSpace=wrap;html=1;" vertex="1" parent="1">
          <mxGeometry x="270" y="10" width="120" height="60" as="geometry" />
        </mxCell>
        <mxCell id="2Yq-ojM0MbA6nod-Vfu8-21" value="师生" style="text;html=1;align=center;verticalAlign=middle;resizable=0;points=[];autosize=1;strokeColor=none;fillColor=none;" vertex="1" parent="1">
          <mxGeometry x="525" y="208" width="50" height="30" as="geometry" />
        </mxCell>
        <mxCell id="2Yq-ojM0MbA6nod-Vfu8-23" value="合作" style="text;html=1;align=center;verticalAlign=middle;resizable=0;points=[];autosize=1;strokeColor=none;fillColor=none;" vertex="1" parent="1">
          <mxGeometry x="725" y="208" width="50" height="30" as="geometry" />
        </mxCell>
        <mxCell id="2Yq-ojM0MbA6nod-Vfu8-25" value="合作" style="text;html=1;align=center;verticalAlign=middle;resizable=0;points=[];autosize=1;strokeColor=none;fillColor=none;" vertex="1" parent="1">
          <mxGeometry x="680" y="88" width="50" height="30" as="geometry" />
        </mxCell>
        <mxCell id="2Yq-ojM0MbA6nod-Vfu8-26" value="衷尔洲&lt;br&gt;马埠村村主任&lt;br&gt;江西省吉安市青原区值夏镇" style="whiteSpace=wrap;html=1;" vertex="1" parent="1">
          <mxGeometry x="60" y="100" width="120" height="60" as="geometry" />
        </mxCell>
        <mxCell id="2Yq-ojM0MbA6nod-Vfu8-27" value="优优&lt;br&gt;2008年生" style="whiteSpace=wrap;html=1;" vertex="1" parent="1">
          <mxGeometry x="465" y="10" width="120" height="60" as="geometry" />
        </mxCell>
        <mxCell id="2Yq-ojM0MbA6nod-Vfu8-29" value="爷孙" style="text;html=1;align=center;verticalAlign=middle;resizable=0;points=[];autosize=1;strokeColor=none;fillColor=none;" vertex="1" parent="1">
          <mxGeometry x="400" y="10" width="50" height="30" as="geometry" />
        </mxCell>
      </root>
    </mxGraphModel>
  </diagram>
</mxfile>
